<?xml version="1.0" encoding="UTF-8"?>
<svg version="1.1" xmlns="http://www.w3.org/2000/svg" width="289" height="550">
<path d="M0 0 C17.31944123 13.19824889 23.34437308 36.97738297 26.36376953 57.46875 C32.77725924 105.79453835 25.3483213 157.55504645 19.37402344 205.58984375 C18.28319878 215.06184121 18.28319878 215.06184121 21 224 C23.60505033 220.88882561 24.88088936 217.97488567 26.125 214.125 C26.62386719 212.61292969 26.62386719 212.61292969 27.1328125 211.0703125 C29.12696915 204.00992005 29.1937801 197.15593465 29.28125 189.8671875 C29.29965942 188.68013214 29.31806885 187.49307678 29.33703613 186.27005005 C29.3956299 182.47174929 29.44838997 178.67340163 29.5 174.875 C30.57496651 97.30662222 30.57496651 97.30662222 47.4375 74.4375 C52.61062852 69.51671921 58.99065452 67.85086499 66 68 C74.04838502 69.07734288 79.86974956 72.77313468 85 79 C98.47114778 100.43137147 99.58028963 126.77146753 99.375 151.375 C99.36851944 152.86386719 99.36851944 152.86386719 99.36190796 154.3828125 C99.27228714 172.0764719 98.34369823 189.44994476 96 207 C95.83371094 208.27746094 95.66742188 209.55492187 95.49609375 210.87109375 C90.99630585 244.23618774 80.79465234 275.91619765 55 299 C43.23661531 307.84657813 27.96131451 311.93591872 14 316 C13.18375322 319.58385418 12.86491747 322.90958872 12.83886719 326.58227539 C12.82938049 327.6918158 12.8198938 328.8013562 12.81011963 329.94451904 C12.8057489 331.15005432 12.80137817 332.3555896 12.796875 333.59765625 C12.79008728 334.87094788 12.78329956 336.1442395 12.77630615 337.45611572 C12.76042943 340.93340663 12.75412611 344.41064942 12.75161743 347.88797379 C12.75053896 349.3379027 12.74880941 350.78783127 12.74642944 352.23775864 C12.70712532 376.71572766 13.44843141 401.06367378 14.93261719 425.49829102 C15.64423203 437.35815846 16.14977967 449.17904487 16.19140625 461.0625 C16.20252441 462.77129082 16.20252441 462.77129082 16.21386719 464.51460266 C16.15237119 488.1926492 8.55721163 510.94332923 -7.8125 528.375 C-9.50929238 529.9522283 -11.23770375 531.49631606 -13 533 C-13.73863281 533.64453125 -14.47726563 534.2890625 -15.23828125 534.953125 C-24.44612404 541.40313599 -37.29667451 540.19698084 -48 539 C-59.33923174 536.83865472 -69.43486143 528.20291746 -76 519 C-82.97058752 508.05399929 -86.8703754 496.53758148 -90 484 C-90.20109375 483.20980469 -90.4021875 482.41960937 -90.609375 481.60546875 C-95.86715481 460.18356857 -95.69058488 437.70650348 -96.4921875 415.7734375 C-96.53465607 414.62373978 -96.57712463 413.47404205 -96.62088013 412.289505 C-96.83163744 406.55458108 -97.0329697 400.81963988 -97.21533203 395.08374023 C-96.92708283 375.24136325 -96.92708283 375.24136325 -103 357 C-103 356.34 -103 355.68 -103 355 C-103.721875 354.71125 -104.44375 354.4225 -105.1875 354.125 C-106.86872873 353.45250851 -108.54003858 352.75283406 -110.18652344 351.99926758 C-113.68749612 350.75582076 -117.16019955 350.31643615 -120.828125 349.88671875 C-122.3659773 349.68886393 -123.903735 349.49027261 -125.44140625 349.29101562 C-127.84077008 348.98699837 -130.24039789 348.68863975 -132.64208984 348.40356445 C-147.58760794 346.60967113 -156.08620519 342.71437331 -167 332 C-167.65226562 331.37222656 -168.30453125 330.74445313 -168.9765625 330.09765625 C-190.15300687 308.03497302 -189.59390563 266.5583665 -189.09326172 238.31542969 C-188.32460515 210.98988972 -186.2029306 176.44130901 -167 155 C-166.34 155 -165.68 155 -165 155 C-165 154.34 -165 153.68 -165 153 C-162.953125 151.52734375 -162.953125 151.52734375 -160.25 149.9375 C-158.92742187 149.14666016 -158.92742187 149.14666016 -157.578125 148.33984375 C-153.04798558 145.98554402 -149.22322108 145.8157835 -144.125 145.75 C-142.93132812 145.72421875 -141.73765625 145.6984375 -140.5078125 145.671875 C-133.17540068 146.35775762 -127.8995138 150.80613556 -123 156 C-110.88719744 171.89179674 -107.46161865 190.62467025 -106.5 210.125 C-106.45576904 210.93195313 -106.41153809 211.73890625 -106.3659668 212.5703125 C-106.09593794 218.05068196 -105.97272714 223.5214417 -105.94155884 229.00753784 C-105.92013863 232.46563709 -105.87730353 235.92338846 -105.83496094 239.38128662 C-105.82013686 241.10962139 -105.81584842 242.83808274 -105.82275391 244.56646729 C-105.86271815 255.43858146 -105.3532015 263.75592929 -99 273 C-98.34 273.66 -97.68 274.32 -97 275 C-94.89179203 274.6814823 -94.89179203 274.6814823 -93 274 C-91.43072317 264.85055564 -90.80875215 255.84632801 -90.8203125 246.5703125 C-90.82153107 245.4241597 -90.82274963 244.2780069 -90.82400513 243.09712219 C-90.93791008 225.72732313 -91.8941034 208.37740264 -92.7376709 191.03112793 C-92.91929548 187.27028829 -93.09546786 183.50920299 -93.27134323 179.74809074 C-93.99726146 164.22777048 -94.73745899 148.70837556 -95.57910156 133.19384766 C-95.6259289 132.32618554 -95.67275623 131.45852343 -95.72100258 130.56456852 C-95.94170667 126.48191366 -96.16584004 122.39950817 -96.39694214 118.31742859 C-98.37592647 82.63689678 -91.05858611 42.95635614 -66.91162109 15.06201172 C-49.67845689 -4.00713124 -23.47773507 -15.63245231 0 0 Z M-57.4375 27.375 C-65.88040358 39.00553044 -71.61509996 52.3659415 -76 66 C-76.24411621 66.73686035 -76.48823242 67.4737207 -76.73974609 68.23291016 C-80.16487453 78.95083018 -81.3650407 89.27266799 -81.2890625 100.50390625 C-81.28695267 101.16741655 -81.28484283 101.83092686 -81.28266907 102.51454353 C-81.18501449 126.30698033 -79.58975149 150.08853579 -78.31781006 173.83953857 C-77.03427832 197.81418569 -75.77574308 221.77154837 -75.65625 245.78515625 C-75.6476445 246.60897734 -75.639039 247.43279842 -75.63017273 248.28158379 C-75.38351226 276.04558903 -75.38351226 276.04558903 -83 286 C-86.93801561 289.38852506 -90.51400191 290.86933767 -95.6328125 291.22265625 C-101.48616382 290.6720935 -106.24328638 287.11795558 -110.1875 282.9375 C-116.00360213 275.56177272 -119.9963229 266.97812795 -120.26538086 257.58325195 C-120.31564674 255.95423698 -120.31564674 255.95423698 -120.3669281 254.29231262 C-120.39924026 253.11948227 -120.43155243 251.94665192 -120.46484375 250.73828125 C-120.54346807 248.23111503 -120.62224936 245.72395373 -120.70117188 243.21679688 C-120.81994337 239.28319223 -120.93643474 235.34954263 -121.04956055 231.41577148 C-120.78138984 194.72464742 -120.78138984 194.72464742 -137.3125 163.3125 C-140.1173973 161.12194967 -142.01704561 160.64299879 -145.5625 160.875 C-151.97817044 162.16681858 -155.64757198 165.24770717 -159.5625 170.375 C-171.32838774 188.25707609 -173.1077227 212.98465947 -173.203125 233.87109375 C-173.20882507 234.87350601 -173.21452515 235.87591827 -173.22039795 236.90870667 C-173.22977855 239.01879851 -173.23635401 241.12890454 -173.24023438 243.23901367 C-173.24988107 246.3985487 -173.28094809 249.5574154 -173.3125 252.71679688 C-173.43287784 275.92428128 -172.02879035 305.80417289 -155 323.625 C-149.44934847 328.91247409 -143.73710227 331.49841401 -136.1953125 332.37890625 C-135.47189667 332.47711166 -134.74848083 332.57531708 -134.00314331 332.67649841 C-131.71203065 332.98596764 -129.4190642 333.27580246 -127.125 333.5625 C-99.54597142 337.08950652 -99.54597142 337.08950652 -90.20703125 348.1171875 C-82.34864041 359.64282739 -82.52849176 375.33004895 -82.12109375 388.828125 C-82.06414006 390.39406777 -82.00592883 391.95996524 -81.94654846 393.52581787 C-81.79422362 397.60786615 -81.6549826 401.69023692 -81.51989746 405.77288818 C-80.77348469 441.82541447 -80.77348469 441.82541447 -75.6875 477.4375 C-75.4702124 478.44828613 -75.2529248 479.45907227 -75.02905273 480.50048828 C-71.7099558 495.36765041 -66.36895024 510.26226281 -54 520 C-49.6589356 522.50446023 -45.01707184 524.49829282 -40 525 C-39.35675781 525.07476563 -38.71351563 525.14953125 -38.05078125 525.2265625 C-30.45691036 525.73016999 -24.62102466 523.07620994 -18.87109375 518.19140625 C-4.69004497 503.51082933 1.15766456 482.05149322 1.140625 462.125 C1.13971863 460.96385429 1.13971863 460.96385429 1.13879395 459.7792511 C1.07430002 451.18443471 0.48163739 442.62900119 -0.06762695 434.05444336 C-1.7263728 408.03672934 -2.31338541 382.10136485 -2.31185913 356.03534317 C-2.3124984 353.44399099 -2.31702327 350.85266859 -2.32226562 348.26132202 C-2.32908156 344.15165846 -2.32366077 340.04218695 -2.30808067 335.93254852 C-2.3032785 334.41187941 -2.30141777 332.89119767 -2.30274391 331.37052155 C-2.30676627 311.11532605 -2.30676627 311.11532605 4 304 C9.54477936 300.87165198 15.71871973 299.04877703 21.76660156 297.16186523 C43.70114458 290.28621638 55.94604117 279.17124023 67 259 C88.9251519 215.71836009 91.88928801 144.16990912 78 98 C75.85675167 92.36872007 73.58447315 86.85717231 68 84 C65.1002723 83.23225132 62.87672924 83.08014971 60 84 C49.30603577 93.36802796 46.95574111 117.76108959 46 131 C45.82025502 135.82884342 45.72626429 140.65712361 45.64613914 145.48851585 C45.59016395 148.74618413 45.51984753 152.00349935 45.45055866 155.26090717 C45.32231306 161.29851083 45.19970026 167.33609647 45.10131836 173.37426758 C45.03189894 177.6008047 44.94411926 181.82663711 44.84493446 186.05257607 C44.81085244 187.64492416 44.78323206 189.2374265 44.76274681 190.83000755 C44.5573074 206.38160924 42.41659651 225.26627581 31 237 C26.49865969 239.71779037 22.99883214 240.51667095 17.9140625 239.5546875 C13.59311273 238.30249389 10.92927652 236.50944646 8.5546875 232.65234375 C1.06109929 218.11478263 4.09503384 202.10311416 5.96621704 186.42672729 C6.56916479 181.3307109 7.12771359 176.22981631 7.6875 171.12890625 C7.80076126 170.09758072 7.91402252 169.06625519 8.03071594 168.00367737 C10.82518884 142.38022001 12.27882101 116.97176398 12.375 91.1875 C12.38691879 89.50779617 12.38691879 89.50779617 12.39907837 87.79415894 C12.49188683 70.85606966 12.0389424 53.68784317 6.25 37.5625 C5.99468506 36.8293457 5.73937012 36.09619141 5.47631836 35.34082031 C1.39107023 24.08325345 -3.75468481 14.9519901 -14.4375 9.125 C-31.00567354 3.8929452 -47.53431007 14.86481648 -57.4375 27.375 Z " fill="#000000" transform="translate(190,11)"/>
</svg>
